The.Rules.of.the.Game.1939.720p.Bluray.x264.anoXmous

Format                           : MPEG-4
Format profile                   : Base Media
Codec ID                         : isom
File size                        : 699 MiB
Duration                         : 1h 46mn
Overall bit rate mode            : Variable
Overall bit rate                 : 917 Kbps


Video
ID                               : 1
Format                           : AVC
Format/Info                      : Advanced Video Codec
Format profile                   : High@L4.1
Format settings, CABAC           : Yes
Format settings, ReFrames        : 4 frames
Codec ID                         : avc1
Codec ID/Info                    : Advanced Video Coding
Duration                         : 1h 46mn
Bit rate                         : 879 Kbps
Maximum bit rate                 : 3 474 Kbps
Width                            : 1 280 pixels
Height                           : 966 pixels
Display aspect ratio             : 4:3
Frame rate mode                  : Constant
Frame rate                       : 23.976 fps
Color space                      : YUV
Chroma subsampling               : 4:2:0
Bit depth                        : 8 bits
Scan type                        : Progressive
Bits/(Pixel*Frame)               : 0.030
Stream size                      : 670 MiB (96%)
Writing library                  : x264 core 120 r2120 0c7dab9


Audio
ID                               : 2
Format                           : AAC
Format/Info                      : Advanced Audio Codec
Format profile                   : LC
Codec ID                         : 40
Duration                         : 1h 46mn
Bit rate mode                    : Variable
Bit rate                         : 35.4 Kbps
Maximum bit rate                 : 43.7 Kbps
Channel(s)                       : 1 channel
Channel positions                : Front: C
Sampling rate                    : 48.0 KHz
Compression mode                 : Lossy
Stream size                      : 27.0 MiB (4%)


                  SUB            :
				  
The.Rules.of.the.Game.1939.720p.Bluray.x264.anoXmous_eng.srt
 
http://www.imdb.com/title/tt0031885/

This work very fine with PSP and XBOX
